<?xml version="1.0" encoding="UTF-8"?>

<!-- License: CC Attribution. Made by Mike Hunter: https://casinoshunter.com/ -->
<svg width="800px" height="800px" viewBox="0 0 28 28" version="1.1" xmlns="http://www.w3.org/2000/svg"
    xmlns:xlink="http://www.w3.org/1999/xlink">
    <title>dice</title>
    <desc>Created with Sketch.</desc>
    <defs>
        <linearGradient x1="50%" y1="0%" x2="50%" y2="100%" id="dicGradient">
            <stop stop-color="#678aff" offset="30%" />
            <stop stop-color="#ffd375" offset="70%" />
        </linearGradient>
    </defs>
    <g id="icons" stroke="none" stroke-width="1" fill="none" fill-rule="evenodd">
        <g id="ui-gambling-website-lined-icnos-casinoshunter" transform="translate(-86.000000, -2038.000000)"
            fill-rule="nonzero">
            <g id="4" transform="translate(50.000000, 1871.000000)">
                <g id="dice" transform="translate(36.000000, 167.000000)">
                    <!-- C28,26 26,28 25,28 L3,28 C1,28 0,26 0,25 L0,3 C0,1 1,0 3,0 L25,0 Z -->
                    <path d="M0,5 c0,-5 5,-5 5,-5 l18,0 c5,0 5,5, 5,5 l0 18 c0,5 -5,5 -5,5 l-18 0 c -5,0 -5,-5 -5,-5 Z"
                        id="Path" fill="url(#dicGradient)" />

                    <circle id="C1" fill="#1C1C1F" cx="8" cy="7" r="2" />

                    <circle id="C2" fill="#1C1C1F" cx="8" cy="14" r="2" />

                    <circle id="C3" fill="#1C1C1F" cx="8" cy="21" r="2" />

                    <circle id="C4" fill="#1C1C1F" cx="19" cy="7" r="2" />

                    <circle id="C5" fill="#1C1C1F" cx="19" cy="14" r="2" />

                    <circle id="C6" fill="#1C1C1F" cx="19" cy="21" r="2" />
                </g>
            </g>
        </g>
    </g>
</svg>